<mxfile host="Electron" modified="2023-06-07T03:46:30.832Z" agent="Mozilla/5.0 (Windows NT 10.0; Win64; x64) AppleWebKit/537.36 (KHTML, like Gecko) draw.io/21.2.8 Chrome/112.0.5615.165 Electron/24.2.0 Safari/537.36" etag="zlWu0KcepdM4i9KnY3PF" version="21.2.8" type="device">
  <diagram name="PÃ¡gina-1" id="bDcTYF9Y5ZELjaCLBgVf">
    <mxGraphModel dx="874" dy="40" grid="0" gridSize="10" guides="1" tooltips="1" connect="1" arrows="1" fold="1" page="0" pageScale="1" pageWidth="827" pageHeight="1169" background="none" math="0" shadow="0">
      <root>
        <mxCell id="0" />
        <mxCell id="1" parent="0" />
        <mxCell id="3cIUDjVzxYk2F231SJAm-6" style="edgeStyle=orthogonalEdgeStyle;rounded=0;orthogonalLoop=1;jettySize=auto;html=1;" parent="1" source="LYaz_Usm5RcHEhtAtL6u-6" target="gfq5tOouVtAQ2ZMTBXaU-38" edge="1">
          <mxGeometry relative="1" as="geometry" />
        </mxCell>
        <mxCell id="3cIUDjVzxYk2F231SJAm-9" value="tiene" style="edgeLabel;html=1;align=center;verticalAlign=middle;resizable=0;points=[];" parent="3cIUDjVzxYk2F231SJAm-6" vertex="1" connectable="0">
          <mxGeometry x="-0.2481" y="-2" relative="1" as="geometry">
            <mxPoint as="offset" />
          </mxGeometry>
        </mxCell>
        <mxCell id="psHmuzJ9RNkA47NZadDs-12" style="edgeStyle=orthogonalEdgeStyle;rounded=0;orthogonalLoop=1;jettySize=auto;html=1;" edge="1" parent="1" source="LYaz_Usm5RcHEhtAtL6u-6" target="psHmuzJ9RNkA47NZadDs-5">
          <mxGeometry relative="1" as="geometry" />
        </mxCell>
        <mxCell id="psHmuzJ9RNkA47NZadDs-13" value="contains" style="edgeLabel;html=1;align=center;verticalAlign=middle;resizable=0;points=[];" vertex="1" connectable="0" parent="psHmuzJ9RNkA47NZadDs-12">
          <mxGeometry x="-0.1384" y="1" relative="1" as="geometry">
            <mxPoint x="4" y="1" as="offset" />
          </mxGeometry>
        </mxCell>
        <mxCell id="LYaz_Usm5RcHEhtAtL6u-6" value="&lt;b style=&quot;border-color: var(--border-color);&quot;&gt;Paciente&lt;/b&gt;" style="swimlane;fontStyle=1;align=center;verticalAlign=top;childLayout=stackLayout;horizontal=1;startSize=30;horizontalStack=0;resizeParent=1;resizeParentMax=0;resizeLast=0;collapsible=1;marginBottom=0;whiteSpace=wrap;html=1;fillColor=#b0e3e6;strokeColor=#0e8088;" parent="1" vertex="1">
          <mxGeometry x="849" y="710" width="175" height="168" as="geometry" />
        </mxCell>
        <mxCell id="S2hSlvMBgsqk8r7ugkta-2" value="- id: int" style="text;strokeColor=none;fillColor=none;align=left;verticalAlign=top;spacingLeft=4;spacingRight=4;overflow=hidden;rotatable=0;points=[[0,0.5],[1,0.5]];portConstraint=eastwest;whiteSpace=wrap;html=1;" parent="LYaz_Usm5RcHEhtAtL6u-6" vertex="1">
          <mxGeometry y="30" width="175" height="26" as="geometry" />
        </mxCell>
        <mxCell id="LYaz_Usm5RcHEhtAtL6u-75" value="- dni: int" style="text;strokeColor=none;fillColor=none;align=left;verticalAlign=top;spacingLeft=4;spacingRight=4;overflow=hidden;rotatable=0;points=[[0,0.5],[1,0.5]];portConstraint=eastwest;whiteSpace=wrap;html=1;" parent="LYaz_Usm5RcHEhtAtL6u-6" vertex="1">
          <mxGeometry y="56" width="175" height="26" as="geometry" />
        </mxCell>
        <mxCell id="LYaz_Usm5RcHEhtAtL6u-74" value="- domicilio: Domicilio" style="text;strokeColor=none;fillColor=none;align=left;verticalAlign=top;spacingLeft=4;spacingRight=4;overflow=hidden;rotatable=0;points=[[0,0.5],[1,0.5]];portConstraint=eastwest;whiteSpace=wrap;html=1;" parent="LYaz_Usm5RcHEhtAtL6u-6" vertex="1">
          <mxGeometry y="82" width="175" height="26" as="geometry" />
        </mxCell>
        <mxCell id="LYaz_Usm5RcHEhtAtL6u-76" value="- fechaDeAlta: LocalDate" style="text;strokeColor=none;fillColor=none;align=left;verticalAlign=top;spacingLeft=4;spacingRight=4;overflow=hidden;rotatable=0;points=[[0,0.5],[1,0.5]];portConstraint=eastwest;whiteSpace=wrap;html=1;" parent="LYaz_Usm5RcHEhtAtL6u-6" vertex="1">
          <mxGeometry y="108" width="175" height="26" as="geometry" />
        </mxCell>
        <mxCell id="gfq5tOouVtAQ2ZMTBXaU-70" value="- service: TurnoService" style="text;strokeColor=none;fillColor=none;align=left;verticalAlign=top;spacingLeft=4;spacingRight=4;overflow=hidden;rotatable=0;points=[[0,0.5],[1,0.5]];portConstraint=eastwest;whiteSpace=wrap;html=1;" parent="LYaz_Usm5RcHEhtAtL6u-6" vertex="1">
          <mxGeometry y="134" width="175" height="26" as="geometry" />
        </mxCell>
        <mxCell id="LYaz_Usm5RcHEhtAtL6u-8" value="" style="line;strokeWidth=1;fillColor=none;align=left;verticalAlign=middle;spacingTop=-1;spacingLeft=3;spacingRight=3;rotatable=0;labelPosition=right;points=[];portConstraint=eastwest;strokeColor=inherit;" parent="LYaz_Usm5RcHEhtAtL6u-6" vertex="1">
          <mxGeometry y="160" width="175" height="8" as="geometry" />
        </mxCell>
        <mxCell id="gfq5tOouVtAQ2ZMTBXaU-11" style="edgeStyle=orthogonalEdgeStyle;rounded=0;orthogonalLoop=1;jettySize=auto;html=1;" parent="1" source="LYaz_Usm5RcHEhtAtL6u-14" target="gfq5tOouVtAQ2ZMTBXaU-22" edge="1">
          <mxGeometry relative="1" as="geometry">
            <Array as="points">
              <mxPoint x="497" y="849" />
              <mxPoint x="639" y="849" />
            </Array>
          </mxGeometry>
        </mxCell>
        <mxCell id="wm9quU0z7dt77rDbth93-2" style="edgeStyle=orthogonalEdgeStyle;rounded=0;orthogonalLoop=1;jettySize=auto;html=1;" parent="1" source="LYaz_Usm5RcHEhtAtL6u-14" target="gfq5tOouVtAQ2ZMTBXaU-13" edge="1">
          <mxGeometry relative="1" as="geometry">
            <Array as="points">
              <mxPoint x="448" y="849" />
              <mxPoint x="306" y="849" />
            </Array>
          </mxGeometry>
        </mxCell>
        <mxCell id="LYaz_Usm5RcHEhtAtL6u-14" value="Administrador" style="swimlane;fontStyle=1;align=center;verticalAlign=top;childLayout=stackLayout;horizontal=1;startSize=26;horizontalStack=0;resizeParent=1;resizeParentMax=0;resizeLast=0;collapsible=1;marginBottom=0;whiteSpace=wrap;html=1;fillColor=#b0e3e6;strokeColor=#0e8088;" parent="1" vertex="1">
          <mxGeometry x="365" y="710" width="210" height="112" as="geometry" />
        </mxCell>
        <mxCell id="S2hSlvMBgsqk8r7ugkta-1" value="- id: int" style="text;strokeColor=none;fillColor=none;align=left;verticalAlign=top;spacingLeft=4;spacingRight=4;overflow=hidden;rotatable=0;points=[[0,0.5],[1,0.5]];portConstraint=eastwest;whiteSpace=wrap;html=1;" parent="LYaz_Usm5RcHEhtAtL6u-14" vertex="1">
          <mxGeometry y="26" width="210" height="26" as="geometry" />
        </mxCell>
        <mxCell id="gfq5tOouVtAQ2ZMTBXaU-10" value="- serviceO: OdontologoService" style="text;strokeColor=none;fillColor=none;align=left;verticalAlign=top;spacingLeft=4;spacingRight=4;overflow=hidden;rotatable=0;points=[[0,0.5],[1,0.5]];portConstraint=eastwest;whiteSpace=wrap;html=1;" parent="LYaz_Usm5RcHEhtAtL6u-14" vertex="1">
          <mxGeometry y="52" width="210" height="26" as="geometry" />
        </mxCell>
        <mxCell id="gfq5tOouVtAQ2ZMTBXaU-71" value="- serviceP: PacienteService" style="text;strokeColor=none;fillColor=none;align=left;verticalAlign=top;spacingLeft=4;spacingRight=4;overflow=hidden;rotatable=0;points=[[0,0.5],[1,0.5]];portConstraint=eastwest;whiteSpace=wrap;html=1;" parent="LYaz_Usm5RcHEhtAtL6u-14" vertex="1">
          <mxGeometry y="78" width="210" height="26" as="geometry" />
        </mxCell>
        <mxCell id="LYaz_Usm5RcHEhtAtL6u-16" value="" style="line;strokeWidth=1;fillColor=none;align=left;verticalAlign=middle;spacingTop=-1;spacingLeft=3;spacingRight=3;rotatable=0;labelPosition=right;points=[];portConstraint=eastwest;strokeColor=inherit;" parent="LYaz_Usm5RcHEhtAtL6u-14" vertex="1">
          <mxGeometry y="104" width="210" height="8" as="geometry" />
        </mxCell>
        <mxCell id="LYaz_Usm5RcHEhtAtL6u-42" value="&lt;span style=&quot;border-color: var(--border-color);&quot;&gt;&lt;span style=&quot;font-weight: normal;&quot;&gt;&amp;lt;&amp;lt;interface&amp;gt;&amp;gt;&lt;/span&gt;&lt;br&gt;DAOAdmin&amp;lt;T&amp;gt;&lt;/span&gt;" style="swimlane;fontStyle=1;align=center;verticalAlign=top;childLayout=stackLayout;horizontal=1;startSize=50;horizontalStack=0;resizeParent=1;resizeParentMax=0;resizeLast=0;collapsible=1;marginBottom=0;whiteSpace=wrap;html=1;fillColor=#6d8764;strokeColor=#3A5431;fontColor=#ffffff;" parent="1" vertex="1">
          <mxGeometry x="361" y="881" width="214" height="164" as="geometry" />
        </mxCell>
        <mxCell id="LYaz_Usm5RcHEhtAtL6u-44" value="" style="line;strokeWidth=1;fillColor=none;align=left;verticalAlign=middle;spacingTop=-1;spacingLeft=3;spacingRight=3;rotatable=0;labelPosition=right;points=[];portConstraint=eastwest;strokeColor=inherit;" parent="LYaz_Usm5RcHEhtAtL6u-42" vertex="1">
          <mxGeometry y="50" width="214" height="8" as="geometry" />
        </mxCell>
        <mxCell id="LYaz_Usm5RcHEhtAtL6u-69" value="+ agregar(t: T): T" style="text;strokeColor=none;fillColor=none;align=left;verticalAlign=top;spacingLeft=4;spacingRight=4;overflow=hidden;rotatable=0;points=[[0,0.5],[1,0.5]];portConstraint=eastwest;whiteSpace=wrap;html=1;" parent="LYaz_Usm5RcHEhtAtL6u-42" vertex="1">
          <mxGeometry y="58" width="214" height="26" as="geometry" />
        </mxCell>
        <mxCell id="LYaz_Usm5RcHEhtAtL6u-70" value="+ modificar(t: T): void" style="text;strokeColor=none;fillColor=none;align=left;verticalAlign=top;spacingLeft=4;spacingRight=4;overflow=hidden;rotatable=0;points=[[0,0.5],[1,0.5]];portConstraint=eastwest;whiteSpace=wrap;html=1;" parent="LYaz_Usm5RcHEhtAtL6u-42" vertex="1">
          <mxGeometry y="84" width="214" height="27" as="geometry" />
        </mxCell>
        <mxCell id="LYaz_Usm5RcHEhtAtL6u-71" value="+ eliminar(id: int): void" style="text;strokeColor=none;fillColor=none;align=left;verticalAlign=top;spacingLeft=4;spacingRight=4;overflow=hidden;rotatable=0;points=[[0,0.5],[1,0.5]];portConstraint=eastwest;whiteSpace=wrap;html=1;" parent="LYaz_Usm5RcHEhtAtL6u-42" vertex="1">
          <mxGeometry y="111" width="214" height="26" as="geometry" />
        </mxCell>
        <mxCell id="gfq5tOouVtAQ2ZMTBXaU-1" value="+ listar(): List&amp;lt;T&amp;gt;" style="text;strokeColor=none;fillColor=none;align=left;verticalAlign=top;spacingLeft=4;spacingRight=4;overflow=hidden;rotatable=0;points=[[0,0.5],[1,0.5]];portConstraint=eastwest;whiteSpace=wrap;html=1;" parent="LYaz_Usm5RcHEhtAtL6u-42" vertex="1">
          <mxGeometry y="137" width="214" height="27" as="geometry" />
        </mxCell>
        <mxCell id="hGI423oOinCAs15rvYJL-36" value="&lt;b style=&quot;border-color: var(--border-color);&quot;&gt;Odontologo&lt;/b&gt;" style="swimlane;fontStyle=1;align=center;verticalAlign=top;childLayout=stackLayout;horizontal=1;startSize=30;horizontalStack=0;resizeParent=1;resizeParentMax=0;resizeLast=0;collapsible=1;marginBottom=0;whiteSpace=wrap;html=1;fillColor=#b0e3e6;strokeColor=#0e8088;" parent="1" vertex="1">
          <mxGeometry x="180" y="1290" width="230" height="64" as="geometry" />
        </mxCell>
        <mxCell id="hGI423oOinCAs15rvYJL-40" value="- matricula: String" style="text;strokeColor=none;fillColor=none;align=left;verticalAlign=top;spacingLeft=4;spacingRight=4;overflow=hidden;rotatable=0;points=[[0,0.5],[1,0.5]];portConstraint=eastwest;whiteSpace=wrap;html=1;" parent="hGI423oOinCAs15rvYJL-36" vertex="1">
          <mxGeometry y="30" width="230" height="26" as="geometry" />
        </mxCell>
        <mxCell id="hGI423oOinCAs15rvYJL-38" value="" style="line;strokeWidth=1;fillColor=none;align=left;verticalAlign=middle;spacingTop=-1;spacingLeft=3;spacingRight=3;rotatable=0;labelPosition=right;points=[];portConstraint=eastwest;strokeColor=inherit;" parent="hGI423oOinCAs15rvYJL-36" vertex="1">
          <mxGeometry y="56" width="230" height="8" as="geometry" />
        </mxCell>
        <mxCell id="3cIUDjVzxYk2F231SJAm-4" style="edgeStyle=orthogonalEdgeStyle;rounded=0;orthogonalLoop=1;jettySize=auto;html=1;entryX=0.5;entryY=0;entryDx=0;entryDy=0;" parent="1" source="gfq5tOouVtAQ2ZMTBXaU-3" target="LYaz_Usm5RcHEhtAtL6u-14" edge="1">
          <mxGeometry relative="1" as="geometry" />
        </mxCell>
        <mxCell id="3cIUDjVzxYk2F231SJAm-5" style="edgeStyle=orthogonalEdgeStyle;rounded=0;orthogonalLoop=1;jettySize=auto;html=1;" parent="1" source="gfq5tOouVtAQ2ZMTBXaU-3" target="LYaz_Usm5RcHEhtAtL6u-6" edge="1">
          <mxGeometry relative="1" as="geometry" />
        </mxCell>
        <mxCell id="gfq5tOouVtAQ2ZMTBXaU-3" value="&lt;span style=&quot;font-weight: normal;&quot;&gt;&amp;lt;&amp;lt;Abstract&amp;gt;&amp;gt;&lt;/span&gt;&lt;br&gt;Usuario" style="swimlane;fontStyle=1;align=center;verticalAlign=top;childLayout=stackLayout;horizontal=1;startSize=39;horizontalStack=0;resizeParent=1;resizeParentMax=0;resizeLast=0;collapsible=1;marginBottom=0;whiteSpace=wrap;html=1;fillColor=#bac8d3;strokeColor=#23445d;" parent="1" vertex="1">
          <mxGeometry x="606.5" y="551" width="200" height="151" as="geometry" />
        </mxCell>
        <mxCell id="gfq5tOouVtAQ2ZMTBXaU-6" value="- nombre: String" style="text;strokeColor=none;fillColor=none;align=left;verticalAlign=top;spacingLeft=4;spacingRight=4;overflow=hidden;rotatable=0;points=[[0,0.5],[1,0.5]];portConstraint=eastwest;whiteSpace=wrap;html=1;" parent="gfq5tOouVtAQ2ZMTBXaU-3" vertex="1">
          <mxGeometry y="39" width="200" height="26" as="geometry" />
        </mxCell>
        <mxCell id="gfq5tOouVtAQ2ZMTBXaU-7" value="- apellido: String" style="text;strokeColor=none;fillColor=none;align=left;verticalAlign=top;spacingLeft=4;spacingRight=4;overflow=hidden;rotatable=0;points=[[0,0.5],[1,0.5]];portConstraint=eastwest;whiteSpace=wrap;html=1;" parent="gfq5tOouVtAQ2ZMTBXaU-3" vertex="1">
          <mxGeometry y="65" width="200" height="26" as="geometry" />
        </mxCell>
        <mxCell id="3cIUDjVzxYk2F231SJAm-1" value="- usuario: String" style="text;strokeColor=none;fillColor=none;align=left;verticalAlign=top;spacingLeft=4;spacingRight=4;overflow=hidden;rotatable=0;points=[[0,0.5],[1,0.5]];portConstraint=eastwest;whiteSpace=wrap;html=1;" parent="gfq5tOouVtAQ2ZMTBXaU-3" vertex="1">
          <mxGeometry y="91" width="200" height="26" as="geometry" />
        </mxCell>
        <mxCell id="3cIUDjVzxYk2F231SJAm-2" value="- contraseÃ±a: String" style="text;strokeColor=none;fillColor=none;align=left;verticalAlign=top;spacingLeft=4;spacingRight=4;overflow=hidden;rotatable=0;points=[[0,0.5],[1,0.5]];portConstraint=eastwest;whiteSpace=wrap;html=1;" parent="gfq5tOouVtAQ2ZMTBXaU-3" vertex="1">
          <mxGeometry y="117" width="200" height="26" as="geometry" />
        </mxCell>
        <mxCell id="gfq5tOouVtAQ2ZMTBXaU-8" value="" style="line;strokeWidth=1;fillColor=none;align=left;verticalAlign=middle;spacingTop=-1;spacingLeft=3;spacingRight=3;rotatable=0;labelPosition=right;points=[];portConstraint=eastwest;strokeColor=inherit;" parent="gfq5tOouVtAQ2ZMTBXaU-3" vertex="1">
          <mxGeometry y="143" width="200" height="8" as="geometry" />
        </mxCell>
        <mxCell id="gfq5tOouVtAQ2ZMTBXaU-66" style="edgeStyle=orthogonalEdgeStyle;rounded=0;orthogonalLoop=1;jettySize=auto;html=1;" parent="1" source="gfq5tOouVtAQ2ZMTBXaU-13" target="hGI423oOinCAs15rvYJL-36" edge="1">
          <mxGeometry relative="1" as="geometry">
            <Array as="points" />
            <mxPoint x="309" y="1141" as="targetPoint" />
          </mxGeometry>
        </mxCell>
        <mxCell id="gfq5tOouVtAQ2ZMTBXaU-67" value="usa" style="edgeLabel;html=1;align=center;verticalAlign=middle;resizable=0;points=[];" parent="gfq5tOouVtAQ2ZMTBXaU-66" vertex="1" connectable="0">
          <mxGeometry x="-0.2184" y="-2" relative="1" as="geometry">
            <mxPoint x="2" y="-2" as="offset" />
          </mxGeometry>
        </mxCell>
        <mxCell id="S2hSlvMBgsqk8r7ugkta-28" style="edgeStyle=orthogonalEdgeStyle;rounded=0;orthogonalLoop=1;jettySize=auto;html=1;" parent="1" source="gfq5tOouVtAQ2ZMTBXaU-13" target="LYaz_Usm5RcHEhtAtL6u-42" edge="1">
          <mxGeometry relative="1" as="geometry">
            <Array as="points">
              <mxPoint x="344" y="1081" />
              <mxPoint x="437" y="1081" />
            </Array>
          </mxGeometry>
        </mxCell>
        <mxCell id="S2hSlvMBgsqk8r7ugkta-29" value="implements" style="edgeLabel;html=1;align=center;verticalAlign=middle;resizable=0;points=[];" parent="S2hSlvMBgsqk8r7ugkta-28" vertex="1" connectable="0">
          <mxGeometry x="-0.2231" y="-1" relative="1" as="geometry">
            <mxPoint x="9" y="-2" as="offset" />
          </mxGeometry>
        </mxCell>
        <mxCell id="gfq5tOouVtAQ2ZMTBXaU-13" value="&lt;b style=&quot;border-color: var(--border-color);&quot;&gt;OdontologoServcie&lt;/b&gt;" style="swimlane;fontStyle=1;align=center;verticalAlign=top;childLayout=stackLayout;horizontal=1;startSize=30;horizontalStack=0;resizeParent=1;resizeParentMax=0;resizeLast=0;collapsible=1;marginBottom=0;whiteSpace=wrap;html=1;fillColor=#d5e8d4;strokeColor=#82b366;" parent="1" vertex="1">
          <mxGeometry x="165" y="1125" width="260" height="64" as="geometry" />
        </mxCell>
        <mxCell id="XJ6Dx2hKnv2_YBLEz1QC-1" value="- estrategia: DAOAdmin&amp;lt;Odontologo&amp;gt;" style="text;strokeColor=none;fillColor=none;align=left;verticalAlign=top;spacingLeft=4;spacingRight=4;overflow=hidden;rotatable=0;points=[[0,0.5],[1,0.5]];portConstraint=eastwest;whiteSpace=wrap;html=1;" parent="gfq5tOouVtAQ2ZMTBXaU-13" vertex="1">
          <mxGeometry y="30" width="260" height="26" as="geometry" />
        </mxCell>
        <mxCell id="gfq5tOouVtAQ2ZMTBXaU-14" value="" style="line;strokeWidth=1;fillColor=none;align=left;verticalAlign=middle;spacingTop=-1;spacingLeft=3;spacingRight=3;rotatable=0;labelPosition=right;points=[];portConstraint=eastwest;strokeColor=inherit;" parent="gfq5tOouVtAQ2ZMTBXaU-13" vertex="1">
          <mxGeometry y="56" width="260" height="8" as="geometry" />
        </mxCell>
        <mxCell id="3cIUDjVzxYk2F231SJAm-7" style="edgeStyle=orthogonalEdgeStyle;rounded=0;orthogonalLoop=1;jettySize=auto;html=1;" parent="1" source="gfq5tOouVtAQ2ZMTBXaU-22" target="LYaz_Usm5RcHEhtAtL6u-6" edge="1">
          <mxGeometry relative="1" as="geometry">
            <Array as="points">
              <mxPoint x="703" y="807" />
            </Array>
          </mxGeometry>
        </mxCell>
        <mxCell id="3cIUDjVzxYk2F231SJAm-8" value="usa" style="edgeLabel;html=1;align=center;verticalAlign=middle;resizable=0;points=[];" parent="3cIUDjVzxYk2F231SJAm-7" vertex="1" connectable="0">
          <mxGeometry x="0.7519" relative="1" as="geometry">
            <mxPoint as="offset" />
          </mxGeometry>
        </mxCell>
        <mxCell id="S2hSlvMBgsqk8r7ugkta-27" style="edgeStyle=orthogonalEdgeStyle;rounded=0;orthogonalLoop=1;jettySize=auto;html=1;" parent="1" source="gfq5tOouVtAQ2ZMTBXaU-22" target="LYaz_Usm5RcHEhtAtL6u-42" edge="1">
          <mxGeometry relative="1" as="geometry">
            <Array as="points">
              <mxPoint x="598" y="1081" />
              <mxPoint x="500" y="1081" />
            </Array>
          </mxGeometry>
        </mxCell>
        <mxCell id="S2hSlvMBgsqk8r7ugkta-30" value="implements" style="edgeLabel;html=1;align=center;verticalAlign=middle;resizable=0;points=[];" parent="S2hSlvMBgsqk8r7ugkta-27" vertex="1" connectable="0">
          <mxGeometry x="0.2016" relative="1" as="geometry">
            <mxPoint x="12" y="-1" as="offset" />
          </mxGeometry>
        </mxCell>
        <mxCell id="gfq5tOouVtAQ2ZMTBXaU-22" value="&lt;b style=&quot;border-color: var(--border-color);&quot;&gt;PacienteServcie&lt;/b&gt;" style="swimlane;fontStyle=1;align=center;verticalAlign=top;childLayout=stackLayout;horizontal=1;startSize=30;horizontalStack=0;resizeParent=1;resizeParentMax=0;resizeLast=0;collapsible=1;marginBottom=0;whiteSpace=wrap;html=1;fillColor=#d5e8d4;strokeColor=#82b366;" parent="1" vertex="1">
          <mxGeometry x="536" y="1125" width="247" height="64" as="geometry" />
        </mxCell>
        <mxCell id="XJ6Dx2hKnv2_YBLEz1QC-2" value="- estrategia: DAOAdmin&amp;lt;Paciente&amp;gt;" style="text;strokeColor=none;fillColor=none;align=left;verticalAlign=top;spacingLeft=4;spacingRight=4;overflow=hidden;rotatable=0;points=[[0,0.5],[1,0.5]];portConstraint=eastwest;whiteSpace=wrap;html=1;" parent="gfq5tOouVtAQ2ZMTBXaU-22" vertex="1">
          <mxGeometry y="30" width="247" height="26" as="geometry" />
        </mxCell>
        <mxCell id="gfq5tOouVtAQ2ZMTBXaU-23" value="" style="line;strokeWidth=1;fillColor=none;align=left;verticalAlign=middle;spacingTop=-1;spacingLeft=3;spacingRight=3;rotatable=0;labelPosition=right;points=[];portConstraint=eastwest;strokeColor=inherit;" parent="gfq5tOouVtAQ2ZMTBXaU-22" vertex="1">
          <mxGeometry y="56" width="247" height="8" as="geometry" />
        </mxCell>
        <mxCell id="gfq5tOouVtAQ2ZMTBXaU-64" style="edgeStyle=orthogonalEdgeStyle;rounded=0;orthogonalLoop=1;jettySize=auto;html=1;" parent="1" source="gfq5tOouVtAQ2ZMTBXaU-38" target="gfq5tOouVtAQ2ZMTBXaU-57" edge="1">
          <mxGeometry relative="1" as="geometry">
            <Array as="points">
              <mxPoint x="937" y="1068" />
              <mxPoint x="937" y="1068" />
            </Array>
          </mxGeometry>
        </mxCell>
        <mxCell id="gfq5tOouVtAQ2ZMTBXaU-69" value="usa" style="edgeLabel;html=1;align=center;verticalAlign=middle;resizable=0;points=[];" parent="gfq5tOouVtAQ2ZMTBXaU-64" vertex="1" connectable="0">
          <mxGeometry x="-0.1489" relative="1" as="geometry">
            <mxPoint x="-1" y="54" as="offset" />
          </mxGeometry>
        </mxCell>
        <mxCell id="fplsFFK9v-HCoAeY9KOD-1" style="edgeStyle=orthogonalEdgeStyle;rounded=0;orthogonalLoop=1;jettySize=auto;html=1;" parent="1" source="gfq5tOouVtAQ2ZMTBXaU-38" target="hGI423oOinCAs15rvYJL-36" edge="1">
          <mxGeometry relative="1" as="geometry">
            <Array as="points">
              <mxPoint x="918" y="1229" />
              <mxPoint x="360" y="1229" />
            </Array>
          </mxGeometry>
        </mxCell>
        <mxCell id="fplsFFK9v-HCoAeY9KOD-4" value="usa" style="edgeLabel;html=1;align=center;verticalAlign=middle;resizable=0;points=[];" parent="fplsFFK9v-HCoAeY9KOD-1" vertex="1" connectable="0">
          <mxGeometry x="0.9189" relative="1" as="geometry">
            <mxPoint x="2" y="-19" as="offset" />
          </mxGeometry>
        </mxCell>
        <mxCell id="S2hSlvMBgsqk8r7ugkta-20" style="edgeStyle=orthogonalEdgeStyle;rounded=0;orthogonalLoop=1;jettySize=auto;html=1;" parent="1" source="gfq5tOouVtAQ2ZMTBXaU-38" target="S2hSlvMBgsqk8r7ugkta-13" edge="1">
          <mxGeometry relative="1" as="geometry">
            <Array as="points" />
          </mxGeometry>
        </mxCell>
        <mxCell id="S2hSlvMBgsqk8r7ugkta-21" value="implements" style="edgeLabel;html=1;align=center;verticalAlign=middle;resizable=0;points=[];" parent="S2hSlvMBgsqk8r7ugkta-20" vertex="1" connectable="0">
          <mxGeometry x="-0.1476" relative="1" as="geometry">
            <mxPoint as="offset" />
          </mxGeometry>
        </mxCell>
        <mxCell id="gfq5tOouVtAQ2ZMTBXaU-38" value="&lt;b style=&quot;border-color: var(--border-color);&quot;&gt;TurnoServcie&lt;/b&gt;" style="swimlane;fontStyle=1;align=center;verticalAlign=top;childLayout=stackLayout;horizontal=1;startSize=30;horizontalStack=0;resizeParent=1;resizeParentMax=0;resizeLast=0;collapsible=1;marginBottom=0;whiteSpace=wrap;html=1;fillColor=#fff2cc;strokeColor=#d6b656;" parent="1" vertex="1">
          <mxGeometry x="810.5" y="946" width="252" height="106" as="geometry" />
        </mxCell>
        <mxCell id="S2hSlvMBgsqk8r7ugkta-23" value="- estrategia: DAOUser" style="text;strokeColor=none;fillColor=none;align=left;verticalAlign=top;spacingLeft=4;spacingRight=4;overflow=hidden;rotatable=0;points=[[0,0.5],[1,0.5]];portConstraint=eastwest;whiteSpace=wrap;html=1;" parent="gfq5tOouVtAQ2ZMTBXaU-38" vertex="1">
          <mxGeometry y="30" width="252" height="26" as="geometry" />
        </mxCell>
        <mxCell id="gfq5tOouVtAQ2ZMTBXaU-39" value="" style="line;strokeWidth=1;fillColor=none;align=left;verticalAlign=middle;spacingTop=-1;spacingLeft=3;spacingRight=3;rotatable=0;labelPosition=right;points=[];portConstraint=eastwest;strokeColor=inherit;" parent="gfq5tOouVtAQ2ZMTBXaU-38" vertex="1">
          <mxGeometry y="56" width="252" height="8" as="geometry" />
        </mxCell>
        <mxCell id="S2hSlvMBgsqk8r7ugkta-18" value="+ consultarTurnosPorId(id: int): Array&amp;lt;Turno&amp;gt;" style="text;strokeColor=none;fillColor=none;align=left;verticalAlign=top;spacingLeft=4;spacingRight=4;overflow=hidden;rotatable=0;points=[[0,0.5],[1,0.5]];portConstraint=eastwest;whiteSpace=wrap;html=1;" parent="gfq5tOouVtAQ2ZMTBXaU-38" vertex="1">
          <mxGeometry y="64" width="252" height="42" as="geometry" />
        </mxCell>
        <mxCell id="gfq5tOouVtAQ2ZMTBXaU-57" value="&lt;b style=&quot;border-color: var(--border-color);&quot;&gt;Turno&lt;/b&gt;" style="swimlane;fontStyle=1;align=center;verticalAlign=top;childLayout=stackLayout;horizontal=1;startSize=30;horizontalStack=0;resizeParent=1;resizeParentMax=0;resizeLast=0;collapsible=1;marginBottom=0;whiteSpace=wrap;html=1;fillColor=#b1ddf0;strokeColor=#10739e;" parent="1" vertex="1">
          <mxGeometry x="856" y="1285" width="175" height="142" as="geometry" />
        </mxCell>
        <mxCell id="S2hSlvMBgsqk8r7ugkta-3" value="- id: int" style="text;strokeColor=none;fillColor=none;align=left;verticalAlign=top;spacingLeft=4;spacingRight=4;overflow=hidden;rotatable=0;points=[[0,0.5],[1,0.5]];portConstraint=eastwest;whiteSpace=wrap;html=1;" parent="gfq5tOouVtAQ2ZMTBXaU-57" vertex="1">
          <mxGeometry y="30" width="175" height="26" as="geometry" />
        </mxCell>
        <mxCell id="gfq5tOouVtAQ2ZMTBXaU-58" value="- odontologo: Odontologo" style="text;strokeColor=none;fillColor=none;align=left;verticalAlign=top;spacingLeft=4;spacingRight=4;overflow=hidden;rotatable=0;points=[[0,0.5],[1,0.5]];portConstraint=eastwest;whiteSpace=wrap;html=1;" parent="gfq5tOouVtAQ2ZMTBXaU-57" vertex="1">
          <mxGeometry y="56" width="175" height="26" as="geometry" />
        </mxCell>
        <mxCell id="gfq5tOouVtAQ2ZMTBXaU-59" value="- paciente: Paciente" style="text;strokeColor=none;fillColor=none;align=left;verticalAlign=top;spacingLeft=4;spacingRight=4;overflow=hidden;rotatable=0;points=[[0,0.5],[1,0.5]];portConstraint=eastwest;whiteSpace=wrap;html=1;" parent="gfq5tOouVtAQ2ZMTBXaU-57" vertex="1">
          <mxGeometry y="82" width="175" height="26" as="geometry" />
        </mxCell>
        <mxCell id="gfq5tOouVtAQ2ZMTBXaU-60" value="- fecha: LocalDate" style="text;strokeColor=none;fillColor=none;align=left;verticalAlign=top;spacingLeft=4;spacingRight=4;overflow=hidden;rotatable=0;points=[[0,0.5],[1,0.5]];portConstraint=eastwest;whiteSpace=wrap;html=1;" parent="gfq5tOouVtAQ2ZMTBXaU-57" vertex="1">
          <mxGeometry y="108" width="175" height="26" as="geometry" />
        </mxCell>
        <mxCell id="gfq5tOouVtAQ2ZMTBXaU-62" value="" style="line;strokeWidth=1;fillColor=none;align=left;verticalAlign=middle;spacingTop=-1;spacingLeft=3;spacingRight=3;rotatable=0;labelPosition=right;points=[];portConstraint=eastwest;strokeColor=inherit;" parent="gfq5tOouVtAQ2ZMTBXaU-57" vertex="1">
          <mxGeometry y="134" width="175" height="8" as="geometry" />
        </mxCell>
        <mxCell id="gfq5tOouVtAQ2ZMTBXaU-93" value="Modelos" style="text;html=1;strokeColor=none;fillColor=none;align=center;verticalAlign=middle;whiteSpace=wrap;rounded=0;fontStyle=1;fontSize=21;" parent="1" vertex="1">
          <mxGeometry x="54" y="1240" width="108" height="30" as="geometry" />
        </mxCell>
        <mxCell id="S2hSlvMBgsqk8r7ugkta-13" value="&lt;span style=&quot;border-color: var(--border-color);&quot;&gt;&lt;span style=&quot;font-weight: normal;&quot;&gt;&amp;lt;&amp;lt;interface&amp;gt;&amp;gt;&lt;/span&gt;&lt;br&gt;DAOUser&lt;/span&gt;" style="swimlane;fontStyle=1;align=center;verticalAlign=top;childLayout=stackLayout;horizontal=1;startSize=41;horizontalStack=0;resizeParent=1;resizeParentMax=0;resizeLast=0;collapsible=1;marginBottom=0;whiteSpace=wrap;html=1;fillColor=#f0a30a;strokeColor=#BD7000;fontColor=#000000;" parent="1" vertex="1">
          <mxGeometry x="1160" y="915" width="213" height="168" as="geometry" />
        </mxCell>
        <mxCell id="S2hSlvMBgsqk8r7ugkta-14" value="" style="line;strokeWidth=1;fillColor=none;align=left;verticalAlign=middle;spacingTop=-1;spacingLeft=3;spacingRight=3;rotatable=0;labelPosition=right;points=[];portConstraint=eastwest;strokeColor=inherit;" parent="S2hSlvMBgsqk8r7ugkta-13" vertex="1">
          <mxGeometry y="41" width="213" height="8" as="geometry" />
        </mxCell>
        <mxCell id="S2hSlvMBgsqk8r7ugkta-15" value="+ listar(): List&amp;lt;Turno&amp;gt;" style="text;strokeColor=none;fillColor=none;align=left;verticalAlign=top;spacingLeft=4;spacingRight=4;overflow=hidden;rotatable=0;points=[[0,0.5],[1,0.5]];portConstraint=eastwest;whiteSpace=wrap;html=1;" parent="S2hSlvMBgsqk8r7ugkta-13" vertex="1">
          <mxGeometry y="49" width="213" height="26" as="geometry" />
        </mxCell>
        <mxCell id="S2hSlvMBgsqk8r7ugkta-16" value="+ insertar(p: Paciente, o: Odontologo, fecha: LocalDate): Turno" style="text;strokeColor=none;fillColor=none;align=left;verticalAlign=top;spacingLeft=4;spacingRight=4;overflow=hidden;rotatable=0;points=[[0,0.5],[1,0.5]];portConstraint=eastwest;whiteSpace=wrap;html=1;" parent="S2hSlvMBgsqk8r7ugkta-13" vertex="1">
          <mxGeometry y="75" width="213" height="42" as="geometry" />
        </mxCell>
        <mxCell id="S2hSlvMBgsqk8r7ugkta-17" value="+ modificar(t: Turno): void" style="text;strokeColor=none;fillColor=none;align=left;verticalAlign=top;spacingLeft=4;spacingRight=4;overflow=hidden;rotatable=0;points=[[0,0.5],[1,0.5]];portConstraint=eastwest;whiteSpace=wrap;html=1;" parent="S2hSlvMBgsqk8r7ugkta-13" vertex="1">
          <mxGeometry y="117" width="213" height="25" as="geometry" />
        </mxCell>
        <mxCell id="S2hSlvMBgsqk8r7ugkta-19" value="+ eliminar(id: int): void" style="text;strokeColor=none;fillColor=none;align=left;verticalAlign=top;spacingLeft=4;spacingRight=4;overflow=hidden;rotatable=0;points=[[0,0.5],[1,0.5]];portConstraint=eastwest;whiteSpace=wrap;html=1;" parent="S2hSlvMBgsqk8r7ugkta-13" vertex="1">
          <mxGeometry y="142" width="213" height="26" as="geometry" />
        </mxCell>
        <mxCell id="psHmuzJ9RNkA47NZadDs-1" value="Diagraman" style="shape=umlActor;verticalLabelPosition=bottom;verticalAlign=top;html=1;" vertex="1" parent="1">
          <mxGeometry x="462" y="1302" width="30" height="60" as="geometry" />
        </mxCell>
        <mxCell id="psHmuzJ9RNkA47NZadDs-2" value="Diagraman" style="shape=umlActor;verticalLabelPosition=bottom;verticalAlign=top;html=1;" vertex="1" parent="1">
          <mxGeometry x="1082" y="672" width="30" height="60" as="geometry" />
        </mxCell>
        <mxCell id="psHmuzJ9RNkA47NZadDs-3" value="Diagraman" style="shape=umlActor;verticalLabelPosition=bottom;verticalAlign=top;html=1;" vertex="1" parent="1">
          <mxGeometry x="264" y="710" width="30" height="60" as="geometry" />
        </mxCell>
        <mxCell id="psHmuzJ9RNkA47NZadDs-4" value="Diagraman" style="shape=umlActor;verticalLabelPosition=bottom;verticalAlign=top;html=1;" vertex="1" parent="1">
          <mxGeometry x="532" y="521" width="30" height="60" as="geometry" />
        </mxCell>
        <mxCell id="psHmuzJ9RNkA47NZadDs-5" value="&lt;b style=&quot;border-color: var(--border-color);&quot;&gt;Domicilio&lt;/b&gt;" style="swimlane;fontStyle=1;align=center;verticalAlign=top;childLayout=stackLayout;horizontal=1;startSize=30;horizontalStack=0;resizeParent=1;resizeParentMax=0;resizeLast=0;collapsible=1;marginBottom=0;whiteSpace=wrap;html=1;fillColor=#b0e3e6;strokeColor=#0e8088;" vertex="1" parent="1">
          <mxGeometry x="1160" y="710" width="175" height="168" as="geometry" />
        </mxCell>
        <mxCell id="psHmuzJ9RNkA47NZadDs-6" value="- id: int" style="text;strokeColor=none;fillColor=none;align=left;verticalAlign=top;spacingLeft=4;spacingRight=4;overflow=hidden;rotatable=0;points=[[0,0.5],[1,0.5]];portConstraint=eastwest;whiteSpace=wrap;html=1;" vertex="1" parent="psHmuzJ9RNkA47NZadDs-5">
          <mxGeometry y="30" width="175" height="26" as="geometry" />
        </mxCell>
        <mxCell id="psHmuzJ9RNkA47NZadDs-7" value="- calle: String" style="text;strokeColor=none;fillColor=none;align=left;verticalAlign=top;spacingLeft=4;spacingRight=4;overflow=hidden;rotatable=0;points=[[0,0.5],[1,0.5]];portConstraint=eastwest;whiteSpace=wrap;html=1;" vertex="1" parent="psHmuzJ9RNkA47NZadDs-5">
          <mxGeometry y="56" width="175" height="26" as="geometry" />
        </mxCell>
        <mxCell id="psHmuzJ9RNkA47NZadDs-8" value="- numero: int" style="text;strokeColor=none;fillColor=none;align=left;verticalAlign=top;spacingLeft=4;spacingRight=4;overflow=hidden;rotatable=0;points=[[0,0.5],[1,0.5]];portConstraint=eastwest;whiteSpace=wrap;html=1;" vertex="1" parent="psHmuzJ9RNkA47NZadDs-5">
          <mxGeometry y="82" width="175" height="26" as="geometry" />
        </mxCell>
        <mxCell id="psHmuzJ9RNkA47NZadDs-9" value="- localidad: String" style="text;strokeColor=none;fillColor=none;align=left;verticalAlign=top;spacingLeft=4;spacingRight=4;overflow=hidden;rotatable=0;points=[[0,0.5],[1,0.5]];portConstraint=eastwest;whiteSpace=wrap;html=1;" vertex="1" parent="psHmuzJ9RNkA47NZadDs-5">
          <mxGeometry y="108" width="175" height="26" as="geometry" />
        </mxCell>
        <mxCell id="psHmuzJ9RNkA47NZadDs-10" value="- provincia: String" style="text;strokeColor=none;fillColor=none;align=left;verticalAlign=top;spacingLeft=4;spacingRight=4;overflow=hidden;rotatable=0;points=[[0,0.5],[1,0.5]];portConstraint=eastwest;whiteSpace=wrap;html=1;" vertex="1" parent="psHmuzJ9RNkA47NZadDs-5">
          <mxGeometry y="134" width="175" height="26" as="geometry" />
        </mxCell>
        <mxCell id="psHmuzJ9RNkA47NZadDs-11" value="" style="line;strokeWidth=1;fillColor=none;align=left;verticalAlign=middle;spacingTop=-1;spacingLeft=3;spacingRight=3;rotatable=0;labelPosition=right;points=[];portConstraint=eastwest;strokeColor=inherit;" vertex="1" parent="psHmuzJ9RNkA47NZadDs-5">
          <mxGeometry y="160" width="175" height="8" as="geometry" />
        </mxCell>
      </root>
    </mxGraphModel>
  </diagram>
</mxfile>
